# xmcd CD database file
#
# Track frame offsets:
#	150
#	31610
#	68605
#	110553
#	143296
#	168540
#	194323
#	218780
#	255319
#	295325
#
# Disc length: 4388 seconds
#
# Revision: 0
# Processed by: cddbd v1.5.1PL2 Copyright (c) Steve Scherf et al.
# Submitted via: CDex 1.51
#
DISCID=8511220a
DTITLE=Brad Mehldau Trio - House On Hill
DYEAR=2006
DGENRE=Jazz
TTITLE0=August Ending
TTITLE1=House On Hill
TTITLE2=Bealtine
TTITLE3=Boomer
TTITLE4=Wait
TTITLE5=Backyard
TTITLE6=Fear And Trembling
TTITLE7=Embers
TTITLE8=Happy Tune
TTITLE9=Waiting For Eden
EXTD=YEAR: 2006
EXTT0=
EXTT1=
EXTT2=
EXTT3=
EXTT4=
EXTT5=
EXTT6=
EXTT7=
EXTT8=
EXTT9=
PLAYORDER=
